<svg xmlns="http://www.w3.org/2000/svg" viewBox="0 0 421.41 427.47"><defs><style>.cls-1{fill:#fe4716;}.cls-2{fill:#fe4a19;}.cls-3{fill:#fe4918;}.cls-4{fill:#fe5224;}.cls-5{fill:#fefdfc;}</style></defs><title>Asset 2</title><g id="Layer_2" data-name="Layer 2"><g id="Layer_1-2" data-name="Layer 1"><path class="cls-1" d="M421.38,421.17c-.44,0-.88,0-1.32,0H348.72c-1.66,0-1.65,0-1.65-1.7,0-3.08.06-6.16,0-9.23,0-1.16.29-1.49,1.46-1.49q21.75.06,43.52,0c5.2,0,10.39,0,15.59,0,1.07,0,1.32-.31,1.32-1.36q0-196.77,0-393.56c0-1.23-.34-1.52-1.54-1.52q-196.71,0-393.41,0c-1.24,0-1.52.35-1.52,1.55q0,196.77,0,393.56c0,1.08.31,1.33,1.34,1.33q29.15,0,58.28,0c1.55,0,1.55,0,1.55,1.58,0,3.11-.06,6.23,0,9.35,0,1.14-.25,1.49-1.44,1.49q-19.67-.06-39.32,0c-10.48,0-20.95,0-31.42,0-1.23,0-1.49-.32-1.49-1.51Q0,251.91,0,84.09V0Q210.14,0,420.24,0c1,0,1.17.19,1.17,1.17Q421.37,211.17,421.38,421.17Z"/><path class="cls-2" d="M248.66,202.85q0,28.85,0,57.68c0,1.1-.38,1.36-1.38,1.35-3.48,0-7,0-10.44,0-.83,0-1.22-.17-1.21-1.13.07-3.88,0-7.75.07-11.63,0-.31.14-.74-.25-.83s-.39.41-.54.66a26.19,26.19,0,0,1-13.34,11.64,35.45,35.45,0,0,1-17.48,2.16,32.17,32.17,0,0,1-22.19-12.05A38.88,38.88,0,0,1,175.2,238a55.36,55.36,0,0,1-2.56-19.25c.31-8.65,2.06-16.94,6.84-24.33A32.55,32.55,0,0,1,194.1,182a37.18,37.18,0,0,1,19.73-2.42,27.62,27.62,0,0,1,17.95,9.31,22.75,22.75,0,0,1,2.58,3.58c.18.31.32.75.73.68s.36-.65.36-1q0-9.88,0-19.78v-27c0-1.6,0-1.62,1.6-1.62H247c1.64,0,1.65,0,1.65,1.69Zm-12.95,18.24c-.12-2.1-.15-4.13-.38-6.16-.62-5.5-2-10.74-5.13-15.36a20.56,20.56,0,0,0-12.62-8.63,29.29,29.29,0,0,0-10.71-.47,21.53,21.53,0,0,0-12.55,5.87c-4.88,4.71-7.08,10.64-7.93,17.13a50.94,50.94,0,0,0,1.27,20.77,26.51,26.51,0,0,0,6.13,11.08,21.46,21.46,0,0,0,12.86,6.51,25.91,25.91,0,0,0,15.32-2c5.33-2.54,8.79-6.9,11-12.29S235.57,226.67,235.71,221.09Z"/><path class="cls-3" d="M351,202.9q0,28.83,0,57.67c0,1-.35,1.31-1.31,1.3q-5.26,0-10.55,0c-.88,0-1.17-.28-1.16-1.18.05-3.79,0-7.59,0-11.39,0-.33.2-.83-.21-1s-.48.44-.63.71A25.89,25.89,0,0,1,323.08,261a35.85,35.85,0,0,1-17.33,1.68,32.21,32.21,0,0,1-21.47-12,39.13,39.13,0,0,1-7.34-14.77A58.81,58.81,0,0,1,275.17,216c.61-7.7,2.46-15,6.71-21.58A32.36,32.36,0,0,1,296.51,182a37.27,37.27,0,0,1,19.62-2.42,27.87,27.87,0,0,1,17.33,8.56,27,27,0,0,1,3.17,4.19c.23.36.36,1,.88.82s.32-.74.32-1.14q0-19.78,0-39.57c0-2.4,0-4.8,0-7.19,0-1.17.4-1.52,1.55-1.5,3.35.06,6.71,0,10.07,0,1.58,0,1.59,0,1.59,1.62Zm-13,18.16c-.05-2-.11-4-.32-6A35.71,35.71,0,0,0,334,201.93a20.51,20.51,0,0,0-13-10.73,27.85,27.85,0,0,0-16.63.44c-6.82,2.36-11.07,7.27-13.65,13.8a38.39,38.39,0,0,0-2.22,10.13,54,54,0,0,0,.45,14.09,29.39,29.39,0,0,0,5.83,14.08,21.32,21.32,0,0,0,13.11,7.89,26,26,0,0,0,16.27-1.7c6.14-2.88,9.78-8,11.83-14.34A47,47,0,0,0,338.05,221.06Z"/><path class="cls-3" d="M71.15,204.75q0-27.83,0-55.63c0-1.18.38-1.52,1.52-1.51,15.26,0,30.52,0,45.79,0A45.43,45.43,0,0,1,135,150.58c7.72,3,13.58,8.1,16.85,15.84,2.28,5.37,2.67,11.06,2.2,16.81a28.34,28.34,0,0,1-9.1,19.19A31.81,31.81,0,0,1,133.8,209a49.22,49.22,0,0,1-16.57,2.67H86.06c-1.56,0-1.53,0-1.53,1.56q0,23.73,0,47.47c0,.84-.32,1.15-1.12,1.15-3.72,0-7.43,0-11.15,0-1,0-1.14-.53-1.14-1.38q0-17.33,0-34.65Zm13.31-25.13c0,6.59,0,13.18,0,19.77,0,1,.32,1.34,1.3,1.32,3.35,0,6.71,0,10.06,0,7.39,0,14.78,0,22.17-.09a28.94,28.94,0,0,0,13.06-3,17.38,17.38,0,0,0,9.42-12.25,24.68,24.68,0,0,0-1-14.92c-2.26-5.44-6.62-8.6-12.15-10.32a41.79,41.79,0,0,0-12.43-1.51c-9.62,0-19.25,0-28.88,0-1.13,0-1.54.31-1.53,1.5C84.48,166.6,84.46,173.11,84.46,179.62Z"/><path class="cls-4" d="M270.69,417c-.17-3,.33-6.58-.38-10.14,0-.12-.05-.28,0-.35.72-.88,1.71-.38,2.57-.49.55-.06.86.18,1,.8s-.22,1.49.52,1.68.84-.74,1.26-1.14a7.83,7.83,0,0,1,10.53-.07c.56.56.64,1.82,1.48,1.68.61-.09,1.05-1.09,1.61-1.65,2.82-2.78,9.21-2.88,11.51,1A10.93,10.93,0,0,1,302,414c.06,4.12,0,8.24,0,12.35,0,.82-.2,1.11-1.06,1.12-2.68,0-2.68.05-2.68-2.58,0-3.87,0-7.75,0-11.63a6.59,6.59,0,0,0-.78-3.09,4.68,4.68,0,0,0-3.91-1.83c-4.16.8-5.21,2.75-5.43,6.79-.2,3.67-.07,7.36,0,11,0,.95-.15,1.34-1.22,1.31-2.37-.06-2.37,0-2.37-2.4,0-3.92,0-7.84,0-11.75,0-3.09-1.25-4.46-4.21-5-1.8-.32-4.75,1.49-5.36,3.3a12,12,0,0,0-.68,4c.07,3.59,0,7.19,0,10.79,0,.74-.14,1.05-1,1.05-2.64,0-2.64.05-2.64-2.61Z"/><path class="cls-4" d="M194.41,411.68c0,4.88,0,9.75,0,14.63,0,.81-.19,1.21-1.05,1.11a5.77,5.77,0,0,0-.72,0c-1.82,0-1.82,0-1.88-1.82,0-.34.12-.78-.3-1s-.62.24-.88.48c-2.47,2.22-5.25,2.63-8.49,1.91a8.19,8.19,0,0,1-5-3.29,11.16,11.16,0,0,1-2.16-6.59,12.8,12.8,0,0,1,2.38-8.56c3.08-4,10.44-4.5,13.49-.58.15.2.35.38.6.28s.33-.49.32-.82c0-3.44,0-6.87-.08-10.31,0-1,.26-1.42,1.33-1.42,2.46,0,2.46,0,2.46,2.39v13.54Zm-3.63,4.69c0-4.43-1.85-7.62-5.94-8-2.28-.22-5,.8-6.06,2.77a11.09,11.09,0,0,0-.62,9.26,6.45,6.45,0,0,0,11.29,1.47A9.72,9.72,0,0,0,190.78,416.37Z"/><path class="cls-2" d="M222.09,427.34c-.31,0-.63.07-1,.07-2.1,0-2.1,0-2.21-2.06,0-.29.12-.69-.29-.82s-.55.21-.76.44c-2,2.2-4.65,2.52-7.42,2.42a1.24,1.24,0,0,1-.83-.42c-.12-.09-.23-.26-.36-.27a6.35,6.35,0,0,1-3.8-2,10.29,10.29,0,0,1-2.82-5.65,13.74,13.74,0,0,1,.72-7.95,8.72,8.72,0,0,1,6-5.11c2.51-.8,4.58-.09,6.75.89,1,.44,1.44,1.33,2.17,2,.25.22.44.66.88.45s.32-.61.31-1c-.07-3.87.14-7.74-.12-11.61,0-.21-.06-.43.13-.53a3.46,3.46,0,0,1,2.22-.13c.67.11.39.79.39,1.21Q222.1,412.32,222.09,427.34ZM219,416a11.57,11.57,0,0,0-.5-3.17c-.65-2.57-2.85-4.24-5.93-4.58a6.33,6.33,0,0,0-5.78,3.14,10.85,10.85,0,0,0-.52,9,6.48,6.48,0,0,0,11.35,1.45A10.57,10.57,0,0,0,219,416Z"/><path class="cls-4" d="M122.78,427.4h-3.31a2.94,2.94,0,0,1-.1-.58q0-14.31,0-28.63a1.4,1.4,0,0,1,.52-1.12c4.67.16,9.34.11,14,0,.46.73,1.23.45,1.87.59a.49.49,0,0,0,.55.09l3,1.84h0c0,.35.34.52.54.77a8.36,8.36,0,0,1-.46,10.65,8.7,8.7,0,0,1-6.17,2.61c-2.95.07-5.91,0-8.86,0-1.62,0-1.62,0-1.62,1.56Q122.79,421.31,122.78,427.4Zm5.81-16.51c1.64-.15,3.64.26,5.61-.32a5.16,5.16,0,0,0,3.88-5.35c-.29-3.16-1.93-4.42-4.53-4.92-3.18-.61-6.43-.37-9.66-.39-.76,0-1,.32-1,1.09,0,2.92,0,5.84,0,8.76,0,.83.26,1.16,1.1,1.14C125.38,410.86,126.81,410.89,128.59,410.89Z"/><path class="cls-4" d="M261.47,416.74c0,3.19,0,6.39,0,9.59,0,.82-.21,1.2-1.06,1.09a4,4,0,0,0-.6,0c-2,0-2,0-2-2,0-.28.09-.6-.22-.75s-.52.21-.73.42a9.17,9.17,0,0,1-11.09.94c-1.94-1.39-2.51-3.49-2.7-5.74-.37-4.35-.08-8.7-.2-13.05,0-.91.34-1.19,1.18-1.22,2.61-.1,2.61-.12,2.61,2.48,0,3.67,0,7.35,0,11,0,1.51.26,3,1.59,3.94a5.93,5.93,0,0,0,6.19.31,5.37,5.37,0,0,0,3.22-5c.09-3.79.07-7.59,0-11.38,0-1.13.32-1.45,1.43-1.43,2.8,0,2.3,0,2.31,2.34C261.48,411.14,261.46,413.94,261.47,416.74Z"/><path class="cls-4" d="M147.12,416.39a10.3,10.3,0,0,1,3.61-8.81c2.94-2.45,6.43-2.75,10-1.73,4.51,1.29,6.66,5.27,7,9.71a11.8,11.8,0,0,1-2.19,8.13c-2.5,3.34-6,3.94-9.92,3.6C150.08,426.81,146.76,421.37,147.12,416.39Zm17-.19a22.79,22.79,0,0,0-.54-3.24c-.71-2.28-2.07-4.24-6-4.67a6.23,6.23,0,0,0-5.7,3.06,11.21,11.21,0,0,0-.72,8.59,6.06,6.06,0,0,0,5.82,4.65,6.17,6.17,0,0,0,6.34-4A16.79,16.79,0,0,0,164.1,416.2Z"/><path class="cls-2" d="M230.87,416.86c0-3.16,0-6.31,0-9.47,0-1,.24-1.35,1.27-1.32,2.83.08,2.31-.25,2.32,2.37,0,5.95,0,11.91,0,17.86,0,.91-.25,1.15-1.14,1.13-2.46,0-2.46,0-2.46-2.42Z"/><path class="cls-4" d="M222.09,427.34q0-15,0-30.07c0-.42.28-1.1-.39-1.21a3.46,3.46,0,0,0-2.22.13c-.19.1-.14.32-.13.53.26,3.87,0,7.74.12,11.61,0,.35.07.77-.31,1s-.63-.23-.88-.45c-.73-.65-1.22-1.54-2.17-2-2.17-1-4.24-1.69-6.75-.89a8.72,8.72,0,0,0-6,5.11,13.74,13.74,0,0,0-.72,7.95,10.29,10.29,0,0,0,2.82,5.65,6.35,6.35,0,0,0,3.8,2c.13,0,.24.18.36.27-3,0-4.82-1.91-6-4.2a12.83,12.83,0,0,1,.55-13.7,9.12,9.12,0,0,1,13.8-1.13c.17.19.36.34.62.22s.3-.44.28-.72c-.21-3.43,0-6.87-.11-10.3-.05-1.15.42-1.44,1.46-1.43,2.43,0,2.43,0,2.43,2.43q0,14.08,0,28.15C222.61,426.68,223,427.34,222.09,427.34Z"/><path class="cls-5" d="M122.78,427.4q0-6.09,0-12.19c0-1.56,0-1.56,1.62-1.56,3,0,5.91.05,8.86,0a8.7,8.7,0,0,0,6.17-2.61,8.36,8.36,0,0,0,.46-10.65c-.2-.25-.5-.42-.54-.77,1.21.12,1.4,1.28,1.8,2,1.93,3.67.61,9.2-3.37,11.07a10.56,10.56,0,0,1-4.83,1.29c-2.84-.05-5.67,0-8.51,0-.9,0-1.17.25-1.16,1.15,0,3.72,0,7.44,0,11.15C123.28,426.68,123.55,427.29,122.78,427.4Z"/><path class="cls-5" d="M119.88,397.07a1.4,1.4,0,0,0-.52,1.12q0,14.32,0,28.63a2.94,2.94,0,0,0,.1.58c-1,.07-.73-.64-.73-1.15,0-4.31,0-8.62,0-12.93V398.48C118.74,397.7,118.71,396.9,119.88,397.07Z"/><path class="cls-4" d="M232.62,400.66c-2.21,0-2.21,0-2.22-2.26,0-1.72,0-1.72,1.69-1.72h.36c2.6,0,2.55,0,2.61,2.58,0,1.05-.31,1.5-1.36,1.4A9.73,9.73,0,0,0,232.62,400.66Z"/><path class="cls-5" d="M139.35,399.61l-3-1.84A3.76,3.76,0,0,1,139.35,399.61Z"/><path class="cls-5" d="M135.76,397.68c-.64-.14-1.41.14-1.87-.59A1.31,1.31,0,0,1,135.76,397.68Z"/></g></g></svg>