<svg xmlns="http://www.w3.org/2000/svg" viewBox="0 0 269 483.3"><defs><style>.cls-1{fill:#fff;}</style></defs><title>Asset 1</title><g id="Layer_2" data-name="Layer 2"><g id="Layer_3_Image" data-name="Layer 3 Image"><path class="cls-1" d="M0,242.3H22c0,5.29-.09,10.23,0,15.17.29,13.64-.37,27.4,1.23,40.89C26,321.62,35.7,342.13,51.66,359.49c18.31,19.91,41,32,67.66,35.54,31.11,4.07,59.57-3.5,84.42-23,23.81-18.69,38.07-43.32,41.88-73.18,2-15.43,1-31.24,1.37-46.88.07-3,0-6,0-9.67h22v57c-1,4.73-1.88,9.49-3,14.18q-15.56,64.2-75.1,92.84c-14.1,6.81-29.14,10.2-44.56,12.14V454.3h5.77q44.24,0,88.49,0c7.86,0,12.93,5.63,13.53,13.45.57,7.6-3.47,11.9-9.12,15.54H24a4.56,4.56,0,0,0-.91-1c-7.32-4.38-10.26-10.87-7.84-18.44,1.52-4.74,5.82-9.81,15.58-9.69,28.79.33,57.6.12,86.4.12h5.51V418.56c-4.49-.76-8.75-1.32-12.93-2.23Q27.42,398.35,4,317.28c-1.7-5.89-2.69-12-4-18Z"/><path class="cls-1" d="M219,181.32c0,31.65.36,63.3-.19,94.94a129.54,129.54,0,0,1-4.34,32c-6.78,24.46-23.35,40.24-47.32,48.08a103.82,103.82,0,0,1-63.42.61C73.54,347.87,54.24,324.25,51,292.67c-.65-6.45-1-12.95-1-19.44-.07-62.3-.2-124.6.11-186.9a130.83,130.83,0,0,1,3.57-30.11c6.39-26,23.23-42.9,48.61-51.09a103.64,103.64,0,0,1,62.94-.47c30.18,9.07,49.48,32.68,52.68,64.26.65,6.45,1,13,1,19.44C219.05,119.35,219,150.33,219,181.32Z"/></g></g></svg>